{
DisplayStrings = (
A,
B,
C,
D,
E,
/mongodb_config,
/mongodb_replicaset,
/mongo_configservers,
/mongodb_leaf,
a,
/mongodb_mongoscope,
b,
/mongodb_store,
c,
d,
/mongodb_router,
e,
f,
g
);
date = "2014-05-24 20:52:24 +0000";
designer = "Lucas Hrabovsky";
familyName = "MongoDB Glyphs";
fontMaster = (
{
ascender = 800;
capHeight = 700;
descender = "-200";
id = "292AF1E3-596B-4C83-A528-19AF46C188F7";
userData = {
GSCornerRadius = 15;
GSOffsetHorizontal = 20;
GSOffsetMakeStroke = 1;
GSOffsetVertical = 20;
};
xHeight = 500;
}
);
glyphs = (
{
glyphname = A;
lastChange = "2014-05-25 14:09:54 -0500";
layers = (
{
layerId = "292AF1E3-596B-4C83-A528-19AF46C188F7";
name = Regular;
paths = (
{
closed = 1;
nodes = (
"785 330 LINE",
"-201 329 LINE",
"-201 305 OFFCURVE",
"-201 312 OFFCURVE",
"-201 174 CURVE",
"-143 174 OFFCURVE",
"-9 174 OFFCURVE",
"785 171 CURVE"
);
}
);
width = 600;
}
);
unicode = 0041;
},
{
glyphname = B;
lastChange = "2014-05-25 14:10:05 -0500";
layers = (
{
layerId = "292AF1E3-596B-4C83-A528-19AF46C188F7";
name = Regular;
paths = (
{
closed = 1;
nodes = (
"871 252 OFFCURVE",
"871 252 OFFCURVE",
"871 252 CURVE",
"871 258 OFFCURVE",
"869 263 OFFCURVE",
"865 267 CURVE",
"627 484 LINE",
"621 489 OFFCURVE",
"613 490 OFFCURVE",
"605 487 CURVE SMOOTH",
"598 484 OFFCURVE",
"593 477 OFFCURVE",
"593 469 CURVE SMOOTH",
"593 330 LINE",
"-182 330 LINE SMOOTH",
"-193 330 OFFCURVE",
"-201 321 OFFCURVE",
"-201 310 CURVE SMOOTH",
"-201 191 LINE SMOOTH",
"-201 180 OFFCURVE",
"-193 171 OFFCURVE",
"-182 171 CURVE SMOOTH",
"593 171 LINE",
"593 32 LINE SMOOTH",
"593 24 OFFCURVE",
"598 17 OFFCURVE",
"605 14 CURVE SMOOTH",
"613 11 OFFCURVE",
"621 12 OFFCURVE",
"627 18 CURVE SMOOTH",
"865 237 LINE",
"869 241 OFFCURVE",
"871 247 OFFCURVE",
"871 252 CURVE"
);
}
);
width = 600;
}
);
unicode = 0042;
},
{
glyphname = C;
lastChange = "2014-05-25 14:10:14 -0500";
layers = (
{
layerId = "292AF1E3-596B-4C83-A528-19AF46C188F7";
name = Regular;
paths = (
{
closed = 1;
nodes = (
"-201 247 OFFCURVE",
"-199 241 OFFCURVE",
"-195 237 CURVE",
"43 18 LINE SMOOTH",
"49 12 OFFCURVE",
"57 11 OFFCURVE",
"65 14 CURVE SMOOTH",
"72 17 OFFCURVE",
"77 24 OFFCURVE",
"77 32 CURVE SMOOTH",
"77 171 LINE",
"852 171 LINE SMOOTH",
"863 171 OFFCURVE",
"871 180 OFFCURVE",
"871 191 CURVE SMOOTH",
"871 310 LINE SMOOTH",
"871 321 OFFCURVE",
"863 330 OFFCURVE",
"852 330 CURVE SMOOTH",
"77 330 LINE",
"77 469 LINE SMOOTH",
"77 477 OFFCURVE",
"72 484 OFFCURVE",
"65 487 CURVE SMOOTH",
"57 490 OFFCURVE",
"49 489 OFFCURVE",
"43 484 CURVE",
"-195 267 LINE",
"-199 263 OFFCURVE",
"-201 258 OFFCURVE",
"-201 252 CURVE",
"-201 252 OFFCURVE",
"-201 252 OFFCURVE",
"-201 252 CURVE"
);
}
);
width = 600;
}
);
unicode = 0043;
},
{
glyphname = D;
lastChange = "2014-05-25 14:12:09 -0500";
layers = (
{
layerId = "292AF1E3-596B-4C83-A528-19AF46C188F7";
name = Regular;
paths = (
{
closed = 1;
nodes = (
"704 -44 LINE",
"1 646 LINE",
"-16 629 OFFCURVE",
"-11 635 OFFCURVE",
"-108 536 CURVE",
"-66 495 OFFCURVE",
"29 402 OFFCURVE",
"592 -158 CURVE"
);
}
);
width = 600;
}
);
unicode = 0044;
},
{
glyphname = E;
lastChange = "2014-05-25 14:12:20 -0500";
layers = (
{
layerId = "292AF1E3-596B-4C83-A528-19AF46C188F7";
name = Regular;
paths = (
{
closed = 1;
nodes = (
"567 402 OFFCURVE",
"662 495 OFFCURVE",
"704 536 CURVE",
"607 635 OFFCURVE",
"612 629 OFFCURVE",
"595 646 CURVE",
"-108 -44 LINE",
"4 -158 LINE"
);
}
);
width = 600;
}
);
unicode = 0045;
},
{
glyphname = a;
lastChange = "2014-05-25 15:32:17 -0500";
layers = (
{
layerId = "292AF1E3-596B-4C83-A528-19AF46C188F7";
name = Regular;
paths = (
{
closed = 1;
nodes = (
"321 -170 LINE",
"329 -129 OFFCURVE",
"311 -79 OFFCURVE",
"345 -47 CURVE",
"377 -13 OFFCURVE",
"476 84 OFFCURVE",
"495 189 CURVE SMOOTH",
"502 228 OFFCURVE",
"556 411 OFFCURVE",
"430 580 CURVE SMOOTH",
"318 732 OFFCURVE",
"342 688 OFFCURVE",
"306 748 CURVE SMOOTH",
"270 808 OFFCURVE",
"303 723 OFFCURVE",
"220 632 CURVE SMOOTH",
"154 562 OFFCURVE",
"100 450 OFFCURVE",
"100 339 CURVE SMOOTH",
"100 216 OFFCURVE",
"149 57 OFFCURVE",
"229 -9 CURVE SMOOTH",
"289 -57 OFFCURVE",
"303 -75 OFFCURVE",
"295 -75 CURVE SMOOTH",
"297 -162 LINE"
);
}
);
width = 600;
}
);
unicode = 0061;
},
{
glyphname = b;
lastChange = "2014-05-25 15:32:34 -0500";
layers = (
{
layerId = "292AF1E3-596B-4C83-A528-19AF46C188F7";
name = Regular;
paths = (
{
closed = 1;
nodes = (
"635 127 OFFCURVE",
"728 358 OFFCURVE",
"667 438 CURVE SMOOTH",
"598 526 OFFCURVE",
"489 535 OFFCURVE",
"421 535 CURVE SMOOTH",
"421 535 OFFCURVE",
"451 613 OFFCURVE",
"454 625 CURVE",
"449 629 OFFCURVE",
"397 642 OFFCURVE",
"385 645 CURVE",
"398 673 OFFCURVE",
"408 703 OFFCURVE",
"421 735 CURVE SMOOTH",
"424 740 OFFCURVE",
"422 746 OFFCURVE",
"416 748 CURVE SMOOTH",
"398 754 OFFCURVE",
"376 760 OFFCURVE",
"357 764 CURVE SMOOTH",
"350 766 OFFCURVE",
"346 764 OFFCURVE",
"345 759 CURVE SMOOTH",
"333 732 OFFCURVE",
"316 695 OFFCURVE",
"302 667 CURVE",
"302 667 OFFCURVE",
"252 681 OFFCURVE",
"239 678 CURVE",
"145 478 LINE SMOOTH",
"145 478 OFFCURVE",
"56 279 OFFCURVE",
"38 221 CURVE",
"76 172 OFFCURVE",
"193 149 OFFCURVE",
"265 165 CURVE",
"297 231 OFFCURVE",
"374 421 OFFCURVE",
"374 421 CURVE SMOOTH",
"462 421 OFFCURVE",
"527 409 OFFCURVE",
"555 380 CURVE SMOOTH",
"598 340 OFFCURVE",
"489 59 OFFCURVE",
"489 59 CURVE SMOOTH",
"-108 59 LINE SMOOTH",
"-114 59 OFFCURVE",
"-118 54 OFFCURVE",
"-118 47 CURVE SMOOTH",
"-118 -41 LINE SMOOTH",
"-118 -47 OFFCURVE",
"-114 -50 OFFCURVE",
"-108 -50 CURVE SMOOTH",
"-86 -51 OFFCURVE",
"-34 -51 OFFCURVE",
"20 -51 CURVE",
"20 -51 OFFCURVE",
"19 -93 OFFCURVE",
"19 -118 CURVE SMOOTH",
"19 -126 OFFCURVE",
"22 -130 OFFCURVE",
"30 -130 CURVE SMOOTH",
"644 -131 LINE SMOOTH",
"651 -131 OFFCURVE",
"655 -127 OFFCURVE",
"655 -121 CURVE SMOOTH",
"648 -49 OFFCURVE",
"591 -85 OFFCURVE",
"611 19 CURVE SMOOTH"
);
}
);
width = 600;
}
);
unicode = 0062;
},
{
glyphname = c;
lastChange = "2014-05-25 15:32:55 -0500";
layers = (
{
layerId = "292AF1E3-596B-4C83-A528-19AF46C188F7";
name = Regular;
paths = (
{
closed = 1;
nodes = (
"160 368 OFFCURVE",
"5 395 OFFCURVE",
"-79 455 CURVE",
"-79 368 LINE SMOOTH",
"-79 295 OFFCURVE",
"97 236 OFFCURVE",
"315 236 CURVE SMOOTH",
"533 236 OFFCURVE",
"709 295 OFFCURVE",
"709 368 CURVE SMOOTH",
"709 455 LINE",
"625 395 OFFCURVE",
"470 368 OFFCURVE",
"315 368 CURVE SMOOTH"
);
},
{
closed = 1;
nodes = (
"160 -27 OFFCURVE",
"5 1 OFFCURVE",
"-79 61 CURVE",
"-79 -27 LINE SMOOTH",
"-79 -99 OFFCURVE",
"97 -158 OFFCURVE",
"315 -158 CURVE SMOOTH",
"533 -158 OFFCURVE",
"709 -99 OFFCURVE",
"709 -27 CURVE SMOOTH",
"709 61 LINE",
"625 1 OFFCURVE",
"470 -27 OFFCURVE",
"315 -27 CURVE SMOOTH"
);
},
{
closed = 1;
nodes = (
"160 171 OFFCURVE",
"5 199 OFFCURVE",
"-79 258 CURVE",
"-79 171 LINE SMOOTH",
"-79 98 OFFCURVE",
"97 39 OFFCURVE",
"315 39 CURVE SMOOTH",
"533 39 OFFCURVE",
"709 98 OFFCURVE",
"709 171 CURVE SMOOTH",
"709 258 LINE",
"625 199 OFFCURVE",
"470 171 OFFCURVE",
"315 171 CURVE SMOOTH"
);
},
{
closed = 1;
nodes = (
"97 762 OFFCURVE",
"-79 703 OFFCURVE",
"-79 631 CURVE SMOOTH",
"-79 564 LINE SMOOTH",
"-79 492 OFFCURVE",
"97 433 OFFCURVE",
"315 433 CURVE SMOOTH",
"533 433 OFFCURVE",
"709 492 OFFCURVE",
"709 564 CURVE SMOOTH",
"709 631 LINE SMOOTH",
"709 703 OFFCURVE",
"533 762 OFFCURVE",
"315 762 CURVE SMOOTH"
);
}
);
width = 600;
}
);
unicode = 0063;
},
{
glyphname = d;
lastChange = "2014-06-17 00:13:16 -0500";
layers = (
{
layerId = "292AF1E3-596B-4C83-A528-19AF46C188F7";
name = Regular;
paths = (
{
closed = 1;
nodes = (
"235 164 OFFCURVE",
"166 178 OFFCURVE",
"126 202 CURVE",
"126 164 LINE SMOOTH",
"126 131 OFFCURVE",
"206 105 OFFCURVE",
"305 105 CURVE SMOOTH",
"404 105 OFFCURVE",
"484 131 OFFCURVE",
"484 164 CURVE SMOOTH",
"484 202 LINE",
"445 178 OFFCURVE",
"375 164 OFFCURVE",
"305 164 CURVE SMOOTH"
);
},
{
closed = 1;
nodes = (
"235 -14 OFFCURVE",
"166 -3 OFFCURVE",
"126 25 CURVE",
"126 -14 LINE SMOOTH",
"126 -47 OFFCURVE",
"206 -74 OFFCURVE",
"305 -74 CURVE SMOOTH",
"404 -74 OFFCURVE",
"484 -47 OFFCURVE",
"484 -14 CURVE SMOOTH",
"484 25 LINE",
"445 -3 OFFCURVE",
"375 -14 OFFCURVE",
"305 -14 CURVE SMOOTH"
);
},
{
closed = 1;
nodes = (
"235 75 OFFCURVE",
"166 88 OFFCURVE",
"126 115 CURVE",
"126 75 LINE SMOOTH",
"126 42 OFFCURVE",
"206 16 OFFCURVE",
"305 16 CURVE SMOOTH",
"404 16 OFFCURVE",
"484 42 OFFCURVE",
"484 75 CURVE SMOOTH",
"484 115 LINE",
"445 88 OFFCURVE",
"375 75 OFFCURVE",
"305 75 CURVE SMOOTH"
);
},
{
closed = 1;
nodes = (
"206 342 OFFCURVE",
"126 316 OFFCURVE",
"126 284 CURVE SMOOTH",
"126 254 LINE SMOOTH",
"126 221 OFFCURVE",
"206 194 OFFCURVE",
"305 194 CURVE SMOOTH",
"404 194 OFFCURVE",
"484 221 OFFCURVE",
"484 254 CURVE SMOOTH",
"484 284 LINE SMOOTH",
"484 316 OFFCURVE",
"404 342 OFFCURVE",
"305 342 CURVE SMOOTH"
);
},
{
closed = 1;
nodes = (
"501 469 OFFCURVE",
"431 482 OFFCURVE",
"392 509 CURVE",
"392 469 LINE SMOOTH",
"392 437 OFFCURVE",
"471 411 OFFCURVE",
"570 411 CURVE SMOOTH",
"669 411 OFFCURVE",
"750 437 OFFCURVE",
"750 469 CURVE SMOOTH",
"750 509 LINE",
"711 482 OFFCURVE",
"639 469 OFFCURVE",
"570 469 CURVE SMOOTH"
);
},
{
closed = 1;
nodes = (
"501 291 OFFCURVE",
"431 302 OFFCURVE",
"392 331 CURVE",
"392 291 LINE SMOOTH",
"392 259 OFFCURVE",
"471 231 OFFCURVE",
"570 231 CURVE SMOOTH",
"669 231 OFFCURVE",
"750 259 OFFCURVE",
"750 291 CURVE SMOOTH",
"750 331 LINE",
"711 302 OFFCURVE",
"639 291 OFFCURVE",
"570 291 CURVE SMOOTH"
);
},
{
closed = 1;
nodes = (
"501 381 OFFCURVE",
"431 393 OFFCURVE",
"392 420 CURVE",
"392 381 LINE SMOOTH",
"392 348 OFFCURVE",
"471 321 OFFCURVE",
"570 321 CURVE SMOOTH",
"669 321 OFFCURVE",
"750 348 OFFCURVE",
"750 381 CURVE SMOOTH",
"750 420 LINE",
"711 393 OFFCURVE",
"639 381 OFFCURVE",
"570 381 CURVE SMOOTH"
);
},
{
closed = 1;
nodes = (
"471 648 OFFCURVE",
"392 621 OFFCURVE",
"392 589 CURVE SMOOTH",
"392 558 LINE SMOOTH",
"392 527 OFFCURVE",
"471 501 OFFCURVE",
"570 501 CURVE SMOOTH",
"669 501 OFFCURVE",
"750 527 OFFCURVE",
"750 558 CURVE SMOOTH",
"750 589 LINE SMOOTH",
"750 621 OFFCURVE",
"669 648 OFFCURVE",
"570 648 CURVE SMOOTH"
);
},
{
closed = 1;
nodes = (
"11 473 OFFCURVE",
"-59 487 OFFCURVE",
"-98 513 CURVE",
"-98 473 LINE SMOOTH",
"-98 441 OFFCURVE",
"-19 415 OFFCURVE",
"80 415 CURVE SMOOTH",
"179 415 OFFCURVE",
"260 441 OFFCURVE",
"260 473 CURVE SMOOTH",
"260 513 LINE",
"220 487 OFFCURVE",
"151 473 OFFCURVE",
"80 473 CURVE SMOOTH"
);
},
{
closed = 1;
nodes = (
"11 295 OFFCURVE",
"-59 308 OFFCURVE",
"-98 335 CURVE",
"-98 295 LINE SMOOTH",
"-98 262 OFFCURVE",
"-19 236 OFFCURVE",
"80 236 CURVE SMOOTH",
"179 236 OFFCURVE",
"260 262 OFFCURVE",
"260 295 CURVE SMOOTH",
"260 335 LINE",
"220 308 OFFCURVE",
"151 295 OFFCURVE",
"80 295 CURVE SMOOTH"
);
},
{
closed = 1;
nodes = (
"11 384 OFFCURVE",
"-59 398 OFFCURVE",
"-98 424 CURVE",
"-98 384 LINE SMOOTH",
"-98 352 OFFCURVE",
"-19 325 OFFCURVE",
"80 325 CURVE SMOOTH",
"179 325 OFFCURVE",
"260 352 OFFCURVE",
"260 384 CURVE SMOOTH",
"260 424 LINE",
"220 398 OFFCURVE",
"151 384 OFFCURVE",
"80 384 CURVE SMOOTH"
);
},
{
closed = 1;
nodes = (
"-19 653 OFFCURVE",
"-98 625 OFFCURVE",
"-98 593 CURVE SMOOTH",
"-98 563 LINE SMOOTH",
"-98 531 OFFCURVE",
"-19 504 OFFCURVE",
"80 504 CURVE SMOOTH",
"179 504 OFFCURVE",
"260 531 OFFCURVE",
"260 563 CURVE SMOOTH",
"260 593 LINE SMOOTH",
"260 625 OFFCURVE",
"179 653 OFFCURVE",
"80 653 CURVE SMOOTH"
);
},
{
closed = 1;
nodes = (
"-226 -160 LINE SMOOTH",
"-226 -167 OFFCURVE",
"-223 -169 OFFCURVE",
"-217 -169 CURVE SMOOTH",
"843 -154 LINE SMOOTH",
"849 -154 OFFCURVE",
"852 -152 OFFCURVE",
"852 -145 CURVE SMOOTH",
"859 751 LINE SMOOTH",
"859 757 OFFCURVE",
"855 760 OFFCURVE",
"849 760 CURVE SMOOTH",
"-216 748 LINE SMOOTH",
"-222 748 OFFCURVE",
"-226 746 OFFCURVE",
"-226 739 CURVE SMOOTH"
);
},
{
closed = 1;
nodes = (
"845 748 LINE",
"841 -142 LINE",
"-213 -157 LINE",
"-213 737 LINE"
);
}
);
width = 600;
}
);
unicode = 0064;
},
{
glyphname = e;
lastChange = "2014-05-25 15:33:29 -0500";
layers = (
{
layerId = "292AF1E3-596B-4C83-A528-19AF46C188F7";
name = Regular;
paths = (
{
closed = 1;
nodes = (
"725 79 OFFCURVE",
"723 84 OFFCURVE",
"721 87 CURVE SMOOTH",
"557 250 LINE",
"554 254 OFFCURVE",
"548 255 OFFCURVE",
"544 255 CURVE SMOOTH",
"535 255 OFFCURVE",
"528 247 OFFCURVE",
"528 239 CURVE SMOOTH",
"528 140 LINE",
"396 140 LINE SMOOTH",
"319 140 OFFCURVE",
"284 143 OFFCURVE",
"287 319 CURVE",
"-85 319 LINE",
"-85 228 LINE SMOOTH",
"-85 209 OFFCURVE",
"-74 198 OFFCURVE",
"-55 198 CURVE SMOOTH",
"-25 198 LINE SMOOTH",
"70 198 OFFCURVE",
"139 200 OFFCURVE",
"139 120 CURVE SMOOTH",
"139 12 OFFCURVE",
"258 7 OFFCURVE",
"399 8 CURVE SMOOTH",
"528 9 LINE",
"528 -90 LINE SMOOTH",
"528 -99 OFFCURVE",
"537 -106 OFFCURVE",
"544 -106 CURVE SMOOTH",
"548 -106 OFFCURVE",
"554 -103 OFFCURVE",
"556 -101 CURVE SMOOTH",
"721 64 LINE SMOOTH",
"723 66 OFFCURVE",
"725 71 OFFCURVE",
"725 74 CURVE SMOOTH"
);
},
{
closed = 1;
nodes = (
"725 569 OFFCURVE",
"723 574 OFFCURVE",
"721 577 CURVE SMOOTH",
"557 741 LINE",
"554 744 OFFCURVE",
"548 746 OFFCURVE",
"544 746 CURVE SMOOTH",
"535 746 OFFCURVE",
"528 739 OFFCURVE",
"528 730 CURVE SMOOTH",
"528 631 LINE",
"396 631 LINE SMOOTH",
"258 631 OFFCURVE",
"139 631 OFFCURVE",
"139 505 CURVE SMOOTH",
"139 414 OFFCURVE",
"84 421 OFFCURVE",
"-30 421 CURVE SMOOTH",
"-55 421 LINE SMOOTH",
"-74 421 OFFCURVE",
"-85 408 OFFCURVE",
"-85 390 CURVE SMOOTH",
"-86 319 LINE",
"287 319 LINE",
"290 496 OFFCURVE",
"329 500 OFFCURVE",
"396 500 CURVE SMOOTH",
"528 500 LINE",
"528 401 LINE SMOOTH",
"528 391 OFFCURVE",
"537 385 OFFCURVE",
"544 385 CURVE SMOOTH",
"548 385 OFFCURVE",
"554 385 OFFCURVE",
"556 389 CURVE SMOOTH",
"721 554 LINE SMOOTH",
"723 556 OFFCURVE",
"725 561 OFFCURVE",
"725 565 CURVE SMOOTH"
);
}
);
width = 600;
}
);
unicode = 0065;
},
{
glyphname = f;
lastChange = "2014-05-25 15:33:47 -0500";
layers = (
{
layerId = "292AF1E3-596B-4C83-A528-19AF46C188F7";
name = Regular;
paths = (
{
closed = 1;
nodes = (
"214 278 OFFCURVE",
"279 239 OFFCURVE",
"326 266 CURVE",
"380 289 OFFCURVE",
"383 375 OFFCURVE",
"328 400 CURVE",
"281 431 OFFCURVE",
"210 388 OFFCURVE",
"214 331 CURVE"
);
},
{
closed = 1;
nodes = (
"132 401 OFFCURVE",
"200 481 OFFCURVE",
"283 486 CURVE SMOOTH",
"367 492 OFFCURVE",
"443 422 OFFCURVE",
"444 337 CURVE SMOOTH",
"444 274 OFFCURVE",
"404 215 OFFCURVE",
"348 192 CURVE SMOOTH",
"257 153 OFFCURVE",
"149 221 OFFCURVE",
"139 319 CURVE SMOOTH"
);
},
{
closed = 1;
nodes = (
"-118 47 OFFCURVE",
"-120 25 OFFCURVE",
"-107 7 CURVE SMOOTH",
"-78 -33 OFFCURVE",
"-31 -53 OFFCURVE",
"12 -66 CURVE SMOOTH",
"135 -107 OFFCURVE",
"264 -116 OFFCURVE",
"393 -108 CURVE SMOOTH",
"453 -102 OFFCURVE",
"513 -96 OFFCURVE",
"570 -76 CURVE SMOOTH",
"614 -61 OFFCURVE",
"671 -40 OFFCURVE",
"679 9 CURVE",
"668 126 OFFCURVE",
"605 575 OFFCURVE",
"590 690 CURVE SMOOTH",
"585 725 OFFCURVE",
"545 746 OFFCURVE",
"506 746 CURVE SMOOTH",
"444 746 OFFCURVE",
"395 745 OFFCURVE",
"316 745 CURVE SMOOTH",
"251 745 OFFCURVE",
"172 725 OFFCURVE",
"142 725 CURVE SMOOTH",
"106 725 OFFCURVE",
"76 711 OFFCURVE",
"69 675 CURVE SMOOTH",
"44 552 OFFCURVE",
"-64 208 OFFCURVE",
"-112 65 CURVE SMOOTH"
);
}
);
width = 600;
}
);
unicode = 0066;
},
{
glyphname = g;
lastChange = "2014-06-17 00:13:00 -0500";
layers = (
{
layerId = "292AF1E3-596B-4C83-A528-19AF46C188F7";
name = Regular;
paths = (
{
closed = 1;
nodes = (
"48 333 OFFCURVE",
"79 313 OFFCURVE",
"99 326 CURVE",
"126 337 OFFCURVE",
"127 377 OFFCURVE",
"100 389 CURVE",
"79 404 OFFCURVE",
"47 383 OFFCURVE",
"48 357 CURVE"
);
},
{
closed = 1;
nodes = (
"10 389 OFFCURVE",
"41 429 OFFCURVE",
"80 429 CURVE SMOOTH",
"120 432 OFFCURVE",
"155 400 OFFCURVE",
"155 360 CURVE SMOOTH",
"155 331 OFFCURVE",
"136 303 OFFCURVE",
"110 291 CURVE SMOOTH",
"68 273 OFFCURVE",
"17 306 OFFCURVE",
"14 352 CURVE SMOOTH"
);
},
{
closed = 1;
nodes = (
"-106 224 OFFCURVE",
"-109 214 OFFCURVE",
"-102 207 CURVE SMOOTH",
"-87 187 OFFCURVE",
"-66 179 OFFCURVE",
"-46 172 CURVE SMOOTH",
"13 152 OFFCURVE",
"71 147 OFFCURVE",
"133 152 CURVE SMOOTH",
"160 155 OFFCURVE",
"188 159 OFFCURVE",
"214 167 CURVE SMOOTH",
"234 174 OFFCURVE",
"260 185 OFFCURVE",
"265 207 CURVE",
"259 261 OFFCURVE",
"230 472 OFFCURVE",
"224 524 CURVE SMOOTH",
"221 541 OFFCURVE",
"203 550 OFFCURVE",
"184 550 CURVE SMOOTH",
"155 550 OFFCURVE",
"133 550 OFFCURVE",
"96 550 CURVE SMOOTH",
"65 550 OFFCURVE",
"28 541 OFFCURVE",
"15 541 CURVE SMOOTH",
"-4 541 OFFCURVE",
"-16 535 OFFCURVE",
"-19 516 CURVE SMOOTH",
"-31 460 OFFCURVE",
"-82 300 OFFCURVE",
"-104 233 CURVE SMOOTH"
);
},
{
closed = 1;
nodes = (
"488 335 OFFCURVE",
"518 317 OFFCURVE",
"538 329 CURVE",
"565 340 OFFCURVE",
"566 381 OFFCURVE",
"540 393 CURVE",
"518 409 OFFCURVE",
"486 387 OFFCURVE",
"488 360 CURVE"
);
},
{
closed = 1;
nodes = (
"449 393 OFFCURVE",
"480 431 OFFCURVE",
"519 432 CURVE SMOOTH",
"559 435 OFFCURVE",
"594 403 OFFCURVE",
"594 363 CURVE SMOOTH",
"594 334 OFFCURVE",
"575 306 OFFCURVE",
"549 294 CURVE SMOOTH",
"507 277 OFFCURVE",
"456 310 OFFCURVE",
"454 354 CURVE SMOOTH"
);
},
{
closed = 1;
nodes = (
"334 227 OFFCURVE",
"330 216 OFFCURVE",
"338 209 CURVE SMOOTH",
"351 191 OFFCURVE",
"374 180 OFFCURVE",
"393 174 CURVE SMOOTH",
"451 155 OFFCURVE",
"511 151 OFFCURVE",
"571 155 CURVE SMOOTH",
"599 159 OFFCURVE",
"627 161 OFFCURVE",
"654 170 CURVE SMOOTH",
"674 179 OFFCURVE",
"699 187 OFFCURVE",
"704 209 CURVE",
"698 264 OFFCURVE",
"669 474 OFFCURVE",
"664 527 CURVE SMOOTH",
"661 543 OFFCURVE",
"641 554 OFFCURVE",
"624 554 CURVE SMOOTH",
"594 554 OFFCURVE",
"571 554 OFFCURVE",
"535 554 CURVE SMOOTH",
"505 554 OFFCURVE",
"467 543 OFFCURVE",
"454 543 CURVE SMOOTH",
"436 543 OFFCURVE",
"424 537 OFFCURVE",
"420 520 CURVE SMOOTH",
"408 463 OFFCURVE",
"357 303 OFFCURVE",
"335 236 CURVE SMOOTH"
);
},
{
closed = 1;
nodes = (
"273 110 OFFCURVE",
"303 91 OFFCURVE",
"324 104 CURVE",
"350 115 OFFCURVE",
"351 155 OFFCURVE",
"324 167 CURVE",
"303 181 OFFCURVE",
"271 161 OFFCURVE",
"273 135 CURVE"
);
},
{
closed = 1;
nodes = (
"234 167 OFFCURVE",
"265 205 OFFCURVE",
"305 207 CURVE SMOOTH",
"344 209 OFFCURVE",
"379 179 OFFCURVE",
"379 139 CURVE SMOOTH",
"379 109 OFFCURVE",
"361 81 OFFCURVE",
"334 69 CURVE SMOOTH",
"293 52 OFFCURVE",
"243 83 OFFCURVE",
"237 129 CURVE SMOOTH"
);
},
{
closed = 1;
nodes = (
"117 1 OFFCURVE",
"115 -9 OFFCURVE",
"123 -16 CURVE SMOOTH",
"136 -35 OFFCURVE",
"158 -45 OFFCURVE",
"177 -51 CURVE SMOOTH",
"236 -70 OFFCURVE",
"295 -74 OFFCURVE",
"356 -70 CURVE SMOOTH",
"384 -67 OFFCURVE",
"411 -64 OFFCURVE",
"438 -56 CURVE SMOOTH",
"459 -49 OFFCURVE",
"484 -38 OFFCURVE",
"489 -16 CURVE",
"484 39 OFFCURVE",
"454 249 OFFCURVE",
"448 301 CURVE SMOOTH",
"445 319 OFFCURVE",
"426 329 OFFCURVE",
"408 329 CURVE SMOOTH",
"379 329 OFFCURVE",
"356 329 OFFCURVE",
"319 329 CURVE SMOOTH",
"289 329 OFFCURVE",
"253 319 OFFCURVE",
"238 319 CURVE SMOOTH",
"221 319 OFFCURVE",
"208 312 OFFCURVE",
"204 294 CURVE SMOOTH",
"194 237 OFFCURVE",
"143 77 OFFCURVE",
"120 11 CURVE SMOOTH"
);
},
{
closed = 1;
nodes = (
"-214 -161 LINE SMOOTH",
"-214 -170 OFFCURVE",
"-209 -171 OFFCURVE",
"-203 -171 CURVE SMOOTH",
"854 -156 LINE SMOOTH",
"860 -156 OFFCURVE",
"865 -155 OFFCURVE",
"865 -148 CURVE SMOOTH",
"871 749 LINE SMOOTH",
"871 756 OFFCURVE",
"868 759 OFFCURVE",
"860 759 CURVE SMOOTH",
"-202 745 LINE SMOOTH",
"-209 745 OFFCURVE",
"-214 744 OFFCURVE",
"-214 737 CURVE SMOOTH"
);
},
{
closed = 1;
nodes = (
"857 745 LINE",
"854 -145 LINE",
"-201 -160 LINE",
"-201 733 LINE"
);
}
);
width = 600;
}
);
unicode = 0067;
},
{
glyphname = s;
lastChange = "2014-06-16 23:32:17 -0500";
layers = (
{
background = {
paths = (
{
closed = 1;
nodes = (
"311 163 LINE",
"313 175 OFFCURVE",
"308 190 OFFCURVE",
"318 199 CURVE",
"327 209 OFFCURVE",
"355 237 OFFCURVE",
"361 267 CURVE SMOOTH",
"363 278 OFFCURVE",
"379 331 OFFCURVE",
"342 380 CURVE SMOOTH",
"310 424 OFFCURVE",
"317 412 OFFCURVE",
"306 429 CURVE SMOOTH",
"296 446 OFFCURVE",
"305 422 OFFCURVE",
"281 395 CURVE SMOOTH",
"262 375 OFFCURVE",
"247 343 OFFCURVE",
"247 311 CURVE SMOOTH",
"247 275 OFFCURVE",
"261 229 OFFCURVE",
"284 210 CURVE SMOOTH",
"301 196 OFFCURVE",
"305 191 OFFCURVE",
"303 191 CURVE SMOOTH",
"304 165 LINE"
);
},
{
closed = 1;
nodes = (
"247.469 486 OFFCURVE",
"305 543.531 OFFCURVE",
"305 614.5 CURVE SMOOTH",
"305 685.469 OFFCURVE",
"247.469 743 OFFCURVE",
"176.5 743 CURVE SMOOTH",
"105.531 743 OFFCURVE",
"48 685.469 OFFCURVE",
"48 614.5 CURVE SMOOTH",
"48 543.531 OFFCURVE",
"105.531 486 OFFCURVE",
"176.5 486 CURVE SMOOTH"
);
}
);
};
layerId = "292AF1E3-596B-4C83-A528-19AF46C188F7";
name = Regular;
paths = (
{
closed = 1;
nodes = (
"341 223 OFFCURVE",
"450 4 OFFCURVE",
"489 -49 CURVE SMOOTH",
"494 -55 OFFCURVE",
"502 -56 OFFCURVE",
"509 -52 CURVE SMOOTH",
"530 -39 OFFCURVE",
"570 -9 OFFCURVE",
"591 12 CURVE SMOOTH",
"596 17 OFFCURVE",
"596 26 OFFCURVE",
"591 32 CURVE SMOOTH",
"526 119 OFFCURVE",
"424 269 OFFCURVE",
"399 311 CURVE",
"458 380 OFFCURVE",
"470 467 OFFCURVE",
"471 492 CURVE SMOOTH",
"471 616 OFFCURVE",
"364 723 OFFCURVE",
"240 723 CURVE SMOOTH",
"114 723 OFFCURVE",
"8 616 OFFCURVE",
"8 492 CURVE SMOOTH",
"8 366 OFFCURVE",
"87 217 OFFCURVE",
"320 244 CURVE"
);
},
{
closed = 1;
nodes = (
"44 231 OFFCURVE",
"44 492 CURVE SMOOTH",
"44 600 OFFCURVE",
"131 686 OFFCURVE",
"240 686 CURVE SMOOTH",
"348 686 OFFCURVE",
"435 600 OFFCURVE",
"435 492 CURVE SMOOTH",
"435 231 OFFCURVE"
);
},
{
closed = 1;
nodes = (
"223 304 LINE",
"226 319 OFFCURVE",
"219 338 OFFCURVE",
"232 351 CURVE",
"245 364 OFFCURVE",
"283 402 OFFCURVE",
"290 442 CURVE SMOOTH",
"293 457 OFFCURVE",
"314 528 OFFCURVE",
"265 593 CURVE SMOOTH",
"223 651 OFFCURVE",
"231 635 OFFCURVE",
"218 658 CURVE SMOOTH",
"204 681 OFFCURVE",
"216 648 OFFCURVE",
"185 613 CURVE SMOOTH",
"159 586 OFFCURVE",
"138 543 OFFCURVE",
"138 500 CURVE SMOOTH",
"138 453 OFFCURVE",
"157 391 OFFCURVE",
"188 366 CURVE SMOOTH",
"211 347 OFFCURVE",
"216 340 OFFCURVE",
"213 340 CURVE SMOOTH",
"214 307 LINE"
);
},
{
closed = 1;
nodes = (
"167 824 OFFCURVE",
"301 463 OFFCURVE",
"214 345 CURVE",
"214 354 LINE SMOOTH",
"214 365 OFFCURVE",
"247 537 OFFCURVE",
"210 670 CURVE SMOOTH"
);
}
);
width = 600;
}
);
unicode = 0073;
},
{
glyphname = mongo_configservers;
lastChange = "2014-05-25 15:42:32 -0500";
layers = (
{
layerId = "292AF1E3-596B-4C83-A528-19AF46C188F7";
name = Regular;
paths = (
{
closed = 1;
nodes = (
"21 331 OFFCURVE",
"55 310 OFFCURVE",
"78 325 CURVE",
"105 336 OFFCURVE",
"109 382 OFFCURVE",
"79 394 CURVE",
"55 409 OFFCURVE",
"20 387 OFFCURVE",
"21 358 CURVE"
);
},
{
closed = 1;
nodes = (
"-21 394 OFFCURVE",
"14 436 OFFCURVE",
"57 437 CURVE SMOOTH",
"102 440 OFFCURVE",
"140 405 OFFCURVE",
"140 362 CURVE SMOOTH",
"140 330 OFFCURVE",
"118 299 OFFCURVE",
"89 285 CURVE SMOOTH",
"42 267 OFFCURVE",
"-12 301 OFFCURVE",
"-17 352 CURVE SMOOTH"
);
},
{
closed = 1;
nodes = (
"-149 211 OFFCURVE",
"-150 200 OFFCURVE",
"-143 192 CURVE SMOOTH",
"-128 171 OFFCURVE",
"-105 160 OFFCURVE",
"-82 154 CURVE SMOOTH",
"-18 133 OFFCURVE",
"47 128 OFFCURVE",
"113 133 CURVE SMOOTH",
"144 136 OFFCURVE",
"174 139 OFFCURVE",
"204 148 CURVE SMOOTH",
"225 157 OFFCURVE",
"255 168 OFFCURVE",
"260 192 CURVE",
"254 253 OFFCURVE",
"220 484 OFFCURVE",
"215 542 CURVE SMOOTH",
"212 560 OFFCURVE",
"191 571 OFFCURVE",
"172 571 CURVE SMOOTH",
"140 571 OFFCURVE",
"113 571 OFFCURVE",
"73 571 CURVE SMOOTH",
"41 571 OFFCURVE",
"-2 560 OFFCURVE",
"-16 560 CURVE SMOOTH",
"-35 560 OFFCURVE",
"-49 553 OFFCURVE",
"-53 534 CURVE SMOOTH",
"-66 471 OFFCURVE",
"-122 295 OFFCURVE",
"-146 222 CURVE SMOOTH"
);
},
{
closed = 1;
nodes = (
"504 333 OFFCURVE",
"539 312 OFFCURVE",
"561 326 CURVE",
"591 337 OFFCURVE",
"592 383 OFFCURVE",
"563 395 CURVE",
"539 412 OFFCURVE",
"503 389 OFFCURVE",
"504 361 CURVE"
);
},
{
closed = 1;
nodes = (
"464 395 OFFCURVE",
"496 437 OFFCURVE",
"540 440 CURVE SMOOTH",
"584 443 OFFCURVE",
"623 406 OFFCURVE",
"623 364 CURVE SMOOTH",
"623 332 OFFCURVE",
"602 301 OFFCURVE",
"573 288 CURVE SMOOTH",
"526 268 OFFCURVE",
"471 305 OFFCURVE",
"465 354 CURVE SMOOTH"
);
},
{
closed = 1;
nodes = (
"334 215 OFFCURVE",
"333 204 OFFCURVE",
"340 195 CURVE SMOOTH",
"355 174 OFFCURVE",
"379 164 OFFCURVE",
"401 157 CURVE SMOOTH",
"464 135 OFFCURVE",
"531 129 OFFCURVE",
"596 135 CURVE SMOOTH",
"627 138 OFFCURVE",
"657 142 OFFCURVE",
"686 152 CURVE SMOOTH",
"710 159 OFFCURVE",
"738 171 OFFCURVE",
"743 195 CURVE",
"737 254 OFFCURVE",
"704 487 OFFCURVE",
"699 545 CURVE SMOOTH",
"694 563 OFFCURVE",
"674 573 OFFCURVE",
"654 573 CURVE SMOOTH",
"623 573 OFFCURVE",
"596 573 OFFCURVE",
"555 573 CURVE SMOOTH",
"524 573 OFFCURVE",
"482 563 OFFCURVE",
"469 563 CURVE SMOOTH",
"448 563 OFFCURVE",
"434 556 OFFCURVE",
"432 535 CURVE SMOOTH",
"418 474 OFFCURVE",
"362 298 OFFCURVE",
"338 223 CURVE SMOOTH"
);
},
{
closed = 1;
nodes = (
"267 85 OFFCURVE",
"301 65 OFFCURVE",
"324 79 CURVE",
"353 91 OFFCURVE",
"354 135 OFFCURVE",
"324 148 CURVE",
"301 165 OFFCURVE",
"266 142 OFFCURVE",
"267 115 CURVE"
);
},
{
closed = 1;
nodes = (
"224 148 OFFCURVE",
"260 191 OFFCURVE",
"303 192 CURVE SMOOTH",
"345 195 OFFCURVE",
"384 160 OFFCURVE",
"384 116 CURVE SMOOTH",
"384 85 OFFCURVE",
"364 54 OFFCURVE",
"335 40 CURVE SMOOTH",
"288 22 OFFCURVE",
"234 57 OFFCURVE",
"229 107 CURVE SMOOTH"
);
},
{
closed = 1;
nodes = (
"97 -34 OFFCURVE",
"94 -45 OFFCURVE",
"103 -52 CURVE SMOOTH",
"117 -74 OFFCURVE",
"142 -84 OFFCURVE",
"162 -91 CURVE SMOOTH",
"228 -113 OFFCURVE",
"293 -115 OFFCURVE",
"359 -113 CURVE SMOOTH",
"390 -108 OFFCURVE",
"421 -105 OFFCURVE",
"450 -96 CURVE SMOOTH",
"472 -88 OFFCURVE",
"501 -76 OFFCURVE",
"505 -52 CURVE",
"498 7 OFFCURVE",
"466 239 OFFCURVE",
"460 296 CURVE SMOOTH",
"458 315 OFFCURVE",
"435 325 OFFCURVE",
"416 325 CURVE SMOOTH",
"384 325 OFFCURVE",
"359 325 OFFCURVE",
"319 325 CURVE SMOOTH",
"286 325 OFFCURVE",
"244 315 OFFCURVE",
"230 315 CURVE SMOOTH",
"212 315 OFFCURVE",
"197 309 OFFCURVE",
"193 288 CURVE SMOOTH",
"181 225 OFFCURVE",
"124 50 OFFCURVE",
"99 -24 CURVE SMOOTH"
);
},
{
closed = 1;
nodes = (
"-268 -214 LINE SMOOTH",
"-268 -222 OFFCURVE",
"-264 -224 OFFCURVE",
"-257 -224 CURVE SMOOTH",
"908 -207 LINE SMOOTH",
"914 -207 OFFCURVE",
"920 -206 OFFCURVE",
"920 -197 CURVE SMOOTH",
"925 787 LINE SMOOTH",
"925 795 OFFCURVE",
"922 799 OFFCURVE",
"914 799 CURVE SMOOTH",
"-256 785 LINE SMOOTH",
"-264 785 OFFCURVE",
"-268 783 OFFCURVE",
"-268 775 CURVE SMOOTH"
);
},
{
closed = 1;
nodes = (
"909 785 LINE",
"906 -195 LINE",
"-253 -210 LINE",
"-253 772 LINE"
);
}
);
width = 600;
}
);
},
{
glyphname = mongodb_config;
lastChange = "2014-05-24 22:29:56 -0500";
layers = (
{
layerId = "292AF1E3-596B-4C83-A528-19AF46C188F7";
name = Regular;
paths = (
{
closed = 1;
nodes = (
"751 278 OFFCURVE",
"816 239 OFFCURVE",
"863 266 CURVE",
"917 289 OFFCURVE",
"920 375 OFFCURVE",
"865 400 CURVE",
"818 431 OFFCURVE",
"747 388 OFFCURVE",
"751 331 CURVE"
);
},
{
closed = 1;
nodes = (
"669 401 OFFCURVE",
"737 481 OFFCURVE",
"820 486 CURVE SMOOTH",
"904 492 OFFCURVE",
"980 422 OFFCURVE",
"981 337 CURVE SMOOTH",
"981 274 OFFCURVE",
"941 215 OFFCURVE",
"885 192 CURVE SMOOTH",
"794 153 OFFCURVE",
"686 221 OFFCURVE",
"676 319 CURVE SMOOTH"
);
},
{
closed = 1;
nodes = (
"419 47 OFFCURVE",
"417 25 OFFCURVE",
"430 7 CURVE SMOOTH",
"459 -33 OFFCURVE",
"506 -53 OFFCURVE",
"549 -66 CURVE SMOOTH",
"672 -107 OFFCURVE",
"801 -116 OFFCURVE",
"930 -108 CURVE SMOOTH",
"990 -102 OFFCURVE",
"1050 -96 OFFCURVE",
"1107 -76 CURVE SMOOTH",
"1151 -61 OFFCURVE",
"1208 -40 OFFCURVE",
"1216 9 CURVE",
"1205 126 OFFCURVE",
"1142 575 OFFCURVE",
"1127 690 CURVE SMOOTH",
"1122 725 OFFCURVE",
"1082 746 OFFCURVE",
"1043 746 CURVE SMOOTH",
"981 746 OFFCURVE",
"932 745 OFFCURVE",
"853 745 CURVE SMOOTH",
"788 745 OFFCURVE",
"709 725 OFFCURVE",
"679 725 CURVE SMOOTH",
"643 725 OFFCURVE",
"613 711 OFFCURVE",
"606 675 CURVE SMOOTH",
"581 552 OFFCURVE",
"473 208 OFFCURVE",
"425 65 CURVE SMOOTH"
);
}
);
width = 1792;
}
);
unicode = F1ED;
},
{
glyphname = mongodb_leaf;
lastChange = "2014-05-24 22:30:31 -0500";
layers = (
{
background = {
paths = (
{
closed = 1;
nodes = (
"909 184 LINE",
"918 234 OFFCURVE",
"898 295 OFFCURVE",
"937 334 CURVE",
"976 373 OFFCURVE",
"1097 491 OFFCURVE",
"1119 618 CURVE SMOOTH",
"1127 665 OFFCURVE",
"1193 888 OFFCURVE",
"1041 1092 CURVE SMOOTH",
"905 1275 OFFCURVE",
"935 1223 OFFCURVE",
"891 1295 CURVE SMOOTH",
"847 1367 OFFCURVE",
"888 1264 OFFCURVE",
"786 1154 CURVE SMOOTH",
"708 1070 OFFCURVE",
"642 934 OFFCURVE",
"642 800 CURVE SMOOTH",
"642 651 OFFCURVE",
"695 449 OFFCURVE",
"798 379 CURVE SMOOTH",
"870 330 OFFCURVE",
"887 299 OFFCURVE",
"878 299 CURVE SMOOTH",
"879 194 LINE"
);
},
{
closed = 1;
nodes = (
"940 410 OFFCURVE",
"897 1278 OFFCURVE",
"897 1255 CURVE SMOOTH",
"888 361 LINE"
);
}
);
};
layerId = "292AF1E3-596B-4C83-A528-19AF46C188F7";
name = Regular;
paths = (
{
closed = 1;
nodes = (
"906 -170 LINE",
"914 -129 OFFCURVE",
"896 -79 OFFCURVE",
"930 -47 CURVE",
"962 -13 OFFCURVE",
"1061 84 OFFCURVE",
"1080 189 CURVE SMOOTH",
"1087 228 OFFCURVE",
"1141 411 OFFCURVE",
"1015 580 CURVE SMOOTH",
"903 732 OFFCURVE",
"927 688 OFFCURVE",
"891 748 CURVE SMOOTH",
"855 808 OFFCURVE",
"888 723 OFFCURVE",
"805 632 CURVE SMOOTH",
"739 562 OFFCURVE",
"685 450 OFFCURVE",
"685 339 CURVE SMOOTH",
"685 216 OFFCURVE",
"734 57 OFFCURVE",
"814 -9 CURVE SMOOTH",
"874 -57 OFFCURVE",
"888 -75 OFFCURVE",
"880 -75 CURVE SMOOTH",
"882 -162 LINE"
);
}
);
width = 1792;
}
);
unicode = F1E9;
},
{
glyphname = mongodb_mongoscope;
lastChange = "2014-05-24 22:30:45 -0500";
layers = (
{
layerId = "292AF1E3-596B-4C83-A528-19AF46C188F7";
name = Regular;
paths = (
{
closed = 1;
nodes = (
"1193 127 OFFCURVE",
"1286 358 OFFCURVE",
"1225 438 CURVE SMOOTH",
"1156 526 OFFCURVE",
"1047 535 OFFCURVE",
"979 535 CURVE SMOOTH",
"979 535 OFFCURVE",
"1009 613 OFFCURVE",
"1012 625 CURVE",
"1007 629 OFFCURVE",
"955 642 OFFCURVE",
"943 645 CURVE",
"956 673 OFFCURVE",
"966 703 OFFCURVE",
"979 735 CURVE SMOOTH",
"982 740 OFFCURVE",
"980 746 OFFCURVE",
"974 748 CURVE SMOOTH",
"956 754 OFFCURVE",
"934 760 OFFCURVE",
"915 764 CURVE SMOOTH",
"908 766 OFFCURVE",
"904 764 OFFCURVE",
"903 759 CURVE SMOOTH",
"891 732 OFFCURVE",
"874 695 OFFCURVE",
"860 667 CURVE",
"860 667 OFFCURVE",
"810 681 OFFCURVE",
"797 678 CURVE",
"703 478 LINE SMOOTH",
"703 478 OFFCURVE",
"614 279 OFFCURVE",
"596 221 CURVE",
"634 172 OFFCURVE",
"751 149 OFFCURVE",
"823 165 CURVE",
"855 231 OFFCURVE",
"932 421 OFFCURVE",
"932 421 CURVE SMOOTH",
"1020 421 OFFCURVE",
"1085 409 OFFCURVE",
"1113 380 CURVE SMOOTH",
"1156 340 OFFCURVE",
"1047 59 OFFCURVE",
"1047 59 CURVE SMOOTH",
"450 59 LINE SMOOTH",
"444 59 OFFCURVE",
"440 54 OFFCURVE",
"440 47 CURVE SMOOTH",
"440 -41 LINE SMOOTH",
"440 -47 OFFCURVE",
"444 -50 OFFCURVE",
"450 -50 CURVE SMOOTH",
"472 -51 OFFCURVE",
"524 -51 OFFCURVE",
"578 -51 CURVE",
"578 -51 OFFCURVE",
"577 -93 OFFCURVE",
"577 -118 CURVE SMOOTH",
"577 -126 OFFCURVE",
"580 -130 OFFCURVE",
"588 -130 CURVE SMOOTH",
"1202 -131 LINE SMOOTH",
"1209 -131 OFFCURVE",
"1213 -127 OFFCURVE",
"1213 -121 CURVE SMOOTH",
"1206 -49 OFFCURVE",
"1149 -85 OFFCURVE",
"1169 19 CURVE SMOOTH"
);
}
);
width = 1792;
}
);
unicode = F1EA;
},
{
glyphname = mongodb_replicaset;
lastChange = "2014-05-24 22:31:30 -0500";
layers = (
{
layerId = "292AF1E3-596B-4C83-A528-19AF46C188F7";
name = Regular;
paths = (
{
closed = 1;
nodes = (
"784 138 OFFCURVE",
"700 154 OFFCURVE",
"652 184 CURVE",
"652 138 LINE SMOOTH",
"652 98 OFFCURVE",
"749 66 OFFCURVE",
"868 66 CURVE SMOOTH",
"988 66 OFFCURVE",
"1085 98 OFFCURVE",
"1085 138 CURVE SMOOTH",
"1085 184 LINE",
"1038 154 OFFCURVE",
"953 138 OFFCURVE",
"868 138 CURVE SMOOTH"
);
},
{
closed = 1;
nodes = (
"784 -78 OFFCURVE",
"700 -65 OFFCURVE",
"652 -31 CURVE",
"652 -78 LINE SMOOTH",
"652 -118 OFFCURVE",
"749 -151 OFFCURVE",
"868 -151 CURVE SMOOTH",
"988 -151 OFFCURVE",
"1085 -118 OFFCURVE",
"1085 -78 CURVE SMOOTH",
"1085 -31 LINE",
"1038 -65 OFFCURVE",
"953 -78 OFFCURVE",
"868 -78 CURVE SMOOTH"
);
},
{
closed = 1;
nodes = (
"784 30 OFFCURVE",
"700 45 OFFCURVE",
"652 78 CURVE",
"652 30 LINE SMOOTH",
"652 -10 OFFCURVE",
"749 -42 OFFCURVE",
"868 -42 CURVE SMOOTH",
"988 -42 OFFCURVE",
"1085 -10 OFFCURVE",
"1085 30 CURVE SMOOTH",
"1085 78 LINE",
"1038 45 OFFCURVE",
"953 30 OFFCURVE",
"868 30 CURVE SMOOTH"
);
},
{
closed = 1;
nodes = (
"749 353 OFFCURVE",
"652 321 OFFCURVE",
"652 283 CURVE SMOOTH",
"652 246 LINE SMOOTH",
"652 207 OFFCURVE",
"749 174 OFFCURVE",
"868 174 CURVE SMOOTH",
"988 174 OFFCURVE",
"1085 207 OFFCURVE",
"1085 246 CURVE SMOOTH",
"1085 283 LINE SMOOTH",
"1085 321 OFFCURVE",
"988 353 OFFCURVE",
"868 353 CURVE SMOOTH"
);
},
{
closed = 1;
nodes = (
"1105 506 OFFCURVE",
"1020 522 OFFCURVE",
"973 554 CURVE",
"973 506 LINE SMOOTH",
"973 468 OFFCURVE",
"1069 436 OFFCURVE",
"1189 436 CURVE SMOOTH",
"1308 436 OFFCURVE",
"1406 468 OFFCURVE",
"1406 506 CURVE SMOOTH",
"1406 554 LINE",
"1359 522 OFFCURVE",
"1272 506 OFFCURVE",
"1189 506 CURVE SMOOTH"
);
},
{
closed = 1;
nodes = (
"1105 291 OFFCURVE",
"1020 305 OFFCURVE",
"973 339 CURVE",
"973 291 LINE SMOOTH",
"973 252 OFFCURVE",
"1069 219 OFFCURVE",
"1189 219 CURVE SMOOTH",
"1308 219 OFFCURVE",
"1406 252 OFFCURVE",
"1406 291 CURVE SMOOTH",
"1406 339 LINE",
"1359 305 OFFCURVE",
"1272 291 OFFCURVE",
"1189 291 CURVE SMOOTH"
);
},
{
closed = 1;
nodes = (
"1105 399 OFFCURVE",
"1020 415 OFFCURVE",
"973 447 CURVE",
"973 399 LINE SMOOTH",
"973 360 OFFCURVE",
"1069 328 OFFCURVE",
"1189 328 CURVE SMOOTH",
"1308 328 OFFCURVE",
"1406 360 OFFCURVE",
"1406 399 CURVE SMOOTH",
"1406 447 LINE",
"1359 415 OFFCURVE",
"1272 399 OFFCURVE",
"1189 399 CURVE SMOOTH"
);
},
{
closed = 1;
nodes = (
"1069 723 OFFCURVE",
"973 690 OFFCURVE",
"973 651 CURVE SMOOTH",
"973 614 LINE SMOOTH",
"973 576 OFFCURVE",
"1069 544 OFFCURVE",
"1189 544 CURVE SMOOTH",
"1308 544 OFFCURVE",
"1406 576 OFFCURVE",
"1406 614 CURVE SMOOTH",
"1406 651 LINE SMOOTH",
"1406 690 OFFCURVE",
"1308 723 OFFCURVE",
"1189 723 CURVE SMOOTH"
);
},
{
closed = 1;
nodes = (
"512 512 OFFCURVE",
"427 528 OFFCURVE",
"381 560 CURVE",
"381 512 LINE SMOOTH",
"381 473 OFFCURVE",
"476 441 OFFCURVE",
"596 441 CURVE SMOOTH",
"716 441 OFFCURVE",
"813 473 OFFCURVE",
"813 512 CURVE SMOOTH",
"813 560 LINE",
"765 528 OFFCURVE",
"681 512 OFFCURVE",
"596 512 CURVE SMOOTH"
);
},
{
closed = 1;
nodes = (
"512 296 OFFCURVE",
"427 311 OFFCURVE",
"381 344 CURVE",
"381 296 LINE SMOOTH",
"381 256 OFFCURVE",
"476 224 OFFCURVE",
"596 224 CURVE SMOOTH",
"716 224 OFFCURVE",
"813 256 OFFCURVE",
"813 296 CURVE SMOOTH",
"813 344 LINE",
"765 311 OFFCURVE",
"681 296 OFFCURVE",
"596 296 CURVE SMOOTH"
);
},
{
closed = 1;
nodes = (
"512 404 OFFCURVE",
"427 420 OFFCURVE",
"381 452 CURVE",
"381 404 LINE SMOOTH",
"381 365 OFFCURVE",
"476 332 OFFCURVE",
"596 332 CURVE SMOOTH",
"716 332 OFFCURVE",
"813 365 OFFCURVE",
"813 404 CURVE SMOOTH",
"813 452 LINE",
"765 420 OFFCURVE",
"681 404 OFFCURVE",
"596 404 CURVE SMOOTH"
);
},
{
closed = 1;
nodes = (
"476 729 OFFCURVE",
"381 695 OFFCURVE",
"381 657 CURVE SMOOTH",
"381 620 LINE SMOOTH",
"381 581 OFFCURVE",
"476 549 OFFCURVE",
"596 549 CURVE SMOOTH",
"716 549 OFFCURVE",
"813 581 OFFCURVE",
"813 620 CURVE SMOOTH",
"813 657 LINE SMOOTH",
"813 695 OFFCURVE",
"716 729 OFFCURVE",
"596 729 CURVE SMOOTH"
);
},
{
closed = 1;
nodes = (
"287 -207 LINE SMOOTH",
"287 -214 OFFCURVE",
"290 -216 OFFCURVE",
"297 -216 CURVE SMOOTH",
"1463 -200 LINE SMOOTH",
"1469 -200 OFFCURVE",
"1473 -198 OFFCURVE",
"1473 -190 CURVE SMOOTH",
"1480 796 LINE SMOOTH",
"1480 802 OFFCURVE",
"1476 805 OFFCURVE",
"1469 805 CURVE SMOOTH",
"298 792 LINE SMOOTH",
"291 792 OFFCURVE",
"287 790 OFFCURVE",
"287 782 CURVE SMOOTH"
);
},
{
closed = 1;
nodes = (
"1465 792 LINE",
"1460 -187 LINE",
"301 -203 LINE",
"301 780 LINE"
);
}
);
width = 1792;
}
);
unicode = F1EC;
},
{
glyphname = mongodb_router;
lastChange = "2014-05-24 22:31:50 -0500";
layers = (
{
layerId = "292AF1E3-596B-4C83-A528-19AF46C188F7";
name = Regular;
paths = (
{
closed = 1;
nodes = (
"1270 73 OFFCURVE",
"1268 78 OFFCURVE",
"1266 81 CURVE SMOOTH",
"1102 244 LINE",
"1099 248 OFFCURVE",
"1093 249 OFFCURVE",
"1089 249 CURVE SMOOTH",
"1080 249 OFFCURVE",
"1073 241 OFFCURVE",
"1073 233 CURVE SMOOTH",
"1073 134 LINE",
"941 134 LINE SMOOTH",
"864 134 OFFCURVE",
"829 137 OFFCURVE",
"832 313 CURVE",
"460 313 LINE",
"460 222 LINE SMOOTH",
"460 203 OFFCURVE",
"471 192 OFFCURVE",
"490 192 CURVE SMOOTH",
"520 192 LINE SMOOTH",
"615 192 OFFCURVE",
"684 194 OFFCURVE",
"684 114 CURVE SMOOTH",
"684 6 OFFCURVE",
"803 1 OFFCURVE",
"944 2 CURVE SMOOTH",
"1073 3 LINE",
"1073 -96 LINE SMOOTH",
"1073 -105 OFFCURVE",
"1082 -112 OFFCURVE",
"1089 -112 CURVE SMOOTH",
"1093 -112 OFFCURVE",
"1099 -109 OFFCURVE",
"1101 -107 CURVE SMOOTH",
"1266 58 LINE SMOOTH",
"1268 60 OFFCURVE",
"1270 65 OFFCURVE",
"1270 68 CURVE SMOOTH"
);
},
{
closed = 1;
nodes = (
"1270 563 OFFCURVE",
"1268 568 OFFCURVE",
"1266 571 CURVE SMOOTH",
"1102 735 LINE",
"1099 738 OFFCURVE",
"1093 740 OFFCURVE",
"1089 740 CURVE SMOOTH",
"1080 740 OFFCURVE",
"1073 733 OFFCURVE",
"1073 724 CURVE SMOOTH",
"1073 625 LINE",
"941 625 LINE SMOOTH",
"803 625 OFFCURVE",
"684 625 OFFCURVE",
"684 499 CURVE SMOOTH",
"684 408 OFFCURVE",
"629 415 OFFCURVE",
"515 415 CURVE SMOOTH",
"490 415 LINE SMOOTH",
"471 415 OFFCURVE",
"460 402 OFFCURVE",
"460 384 CURVE SMOOTH",
"459 313 LINE",
"832 313 LINE",
"835 490 OFFCURVE",
"874 494 OFFCURVE",
"941 494 CURVE SMOOTH",
"1073 494 LINE",
"1073 395 LINE SMOOTH",
"1073 385 OFFCURVE",
"1082 379 OFFCURVE",
"1089 379 CURVE SMOOTH",
"1093 379 OFFCURVE",
"1099 379 OFFCURVE",
"1101 383 CURVE SMOOTH",
"1266 548 LINE SMOOTH",
"1268 550 OFFCURVE",
"1270 555 OFFCURVE",
"1270 559 CURVE SMOOTH"
);
}
);
width = 1792;
}
);
unicode = F1EE;
},
{
glyphname = mongodb_store;
lastChange = "2014-05-24 22:32:08 -0500";
layers = (
{
layerId = "292AF1E3-596B-4C83-A528-19AF46C188F7";
name = Regular;
paths = (
{
closed = 1;
nodes = (
"740 368 OFFCURVE",
"585 395 OFFCURVE",
"501 455 CURVE",
"501 368 LINE SMOOTH",
"501 295 OFFCURVE",
"677 236 OFFCURVE",
"895 236 CURVE SMOOTH",
"1113 236 OFFCURVE",
"1289 295 OFFCURVE",
"1289 368 CURVE SMOOTH",
"1289 455 LINE",
"1205 395 OFFCURVE",
"1050 368 OFFCURVE",
"895 368 CURVE SMOOTH"
);
},
{
closed = 1;
nodes = (
"740 -27 OFFCURVE",
"585 1 OFFCURVE",
"501 61 CURVE",
"501 -27 LINE SMOOTH",
"501 -99 OFFCURVE",
"677 -158 OFFCURVE",
"895 -158 CURVE SMOOTH",
"1113 -158 OFFCURVE",
"1289 -99 OFFCURVE",
"1289 -27 CURVE SMOOTH",
"1289 61 LINE",
"1205 1 OFFCURVE",
"1050 -27 OFFCURVE",
"895 -27 CURVE SMOOTH"
);
},
{
closed = 1;
nodes = (
"740 171 OFFCURVE",
"585 199 OFFCURVE",
"501 258 CURVE",
"501 171 LINE SMOOTH",
"501 98 OFFCURVE",
"677 39 OFFCURVE",
"895 39 CURVE SMOOTH",
"1113 39 OFFCURVE",
"1289 98 OFFCURVE",
"1289 171 CURVE SMOOTH",
"1289 258 LINE",
"1205 199 OFFCURVE",
"1050 171 OFFCURVE",
"895 171 CURVE SMOOTH"
);
},
{
closed = 1;
nodes = (
"677 762 OFFCURVE",
"501 703 OFFCURVE",
"501 631 CURVE SMOOTH",
"501 564 LINE SMOOTH",
"501 492 OFFCURVE",
"677 433 OFFCURVE",
"895 433 CURVE SMOOTH",
"1113 433 OFFCURVE",
"1289 492 OFFCURVE",
"1289 564 CURVE SMOOTH",
"1289 631 LINE SMOOTH",
"1289 703 OFFCURVE",
"1113 762 OFFCURVE",
"895 762 CURVE SMOOTH"
);
}
